<svg xmlns="http://www.w3.org/2000/svg" width="22" height="19" viewBox="0 0 22 19"><g><g><path fill="#bfbfbf" d="M11.5 6.552a.673.673 0 0 0-.671-.671H4.394a.673.673 0 0 0-.671.671c0 .37.301.672.671.672h6.434c.37 0 .67-.302.67-.672zM8.822 9.23a.673.673 0 0 0-.671-.672H4.395a.673.673 0 0 0-.671.672c0 .37.301.671.671.671h3.756c.37 0 .671-.302.671-.671zm6.268-.219c-.566 3.01-3.01 5.423-6.026 5.966-1.743.31-3.402.023-4.805-.694a.634.634 0 0 0-.498-.038l-2.903.966c-.506.166-.996-.317-.822-.822L1 11.492a.638.638 0 0 0-.045-.497 7.542 7.542 0 0 1-.71-4.827C.79 3.143 3.204.692 6.229.134A7.564 7.564 0 0 1 15.09 9.01zm5.174 9.956L17.36 18a.67.67 0 0 0-.498.038c-1.403.717-3.062 1.003-4.804.694a7.485 7.485 0 0 1-4.156-2.3 9.607 9.607 0 0 0 1.395-.136c3.583-.641 6.434-3.47 7.105-7.037a8.997 8.997 0 0 0-.528-5.114c2.55.86 4.518 3.093 5 5.778a7.55 7.55 0 0 1-.708 4.827.638.638 0 0 0-.046.497l.966 2.897c.173.505-.31.988-.822.822z"/></g></g></svg>