<svg xmlns="http://www.w3.org/2000/svg" width="12" height="11" viewBox="0 0 12 11"><g><g><g><g><g><path fill="#2bc2fa" d="M10.109 5.82v2.612c0 .186.011.377-.008.562l-.004.032.019-.135a1.368 1.368 0 0 1-.09.332l.05-.123c-.043.104-.1.2-.168.29l.081-.106a1.385 1.385 0 0 1-.235.238l.107-.083a1.373 1.373 0 0 1-.303.178l.13-.054a1.368 1.368 0 0 1-.332.09l.139-.018c-.122.016-.246.012-.369.012H2.64c-.155 0-.315.008-.47-.012l.135.019a1.368 1.368 0 0 1-.332-.09l.123.051a1.375 1.375 0 0 1-.29-.169l.106.081a1.385 1.385 0 0 1-.238-.235l.084.108a1.373 1.373 0 0 1-.179-.303l.054.129a1.368 1.368 0 0 1-.09-.332l.018.14c-.016-.123-.012-.247-.012-.37v-.601-1.988-2.267-1.63c0-.155-.008-.315.012-.47l-.018.135c.016-.114.046-.225.09-.332l-.052.124c.045-.104.1-.201.169-.291l-.081.106c.069-.089.147-.168.235-.238l-.107.084c.093-.073.194-.132.303-.178l-.13.054c.107-.044.218-.074.332-.09l-.139.017c.19-.024.388-.012.579-.012H5.34a.529.529 0 0 0 .527-.519.528.528 0 0 0-.52-.527H2.741c-.24 0-.471-.004-.71.03-.34.048-.645.217-.906.434a1.825 1.825 0 0 0-.54.832 2.12 2.12 0 0 0-.082.672v6.82c0 .512.204 1.013.58 1.364.35.326.81.5 1.287.5H9.203c.256 0 .516-.02.756-.12.096-.04.19-.077.28-.13.093-.052.176-.12.26-.185a1.86 1.86 0 0 0 .333-.369c.202-.273.298-.617.32-.952.013-.176.003-.355.003-.53v-1.06-1.52a.529.529 0 0 0-.52-.527.528.528 0 0 0-.526.52z"/></g></g></g><g><g><g><path fill="#2bc2fa" d="M7.272 1.087l1.482.002 1.816.002h.058a.529.529 0 0 0 .527-.52.528.528 0 0 0-.52-.527L9.156.043 7.338.04H7.28a.529.529 0 0 0-.527.52.528.528 0 0 0 .52.526z"/></g></g></g><g><g><g><path fill="#2bc2fa" d="M11.152 3.924l.001-1.481.002-1.816V.568a.529.529 0 0 0-.52-.527.528.528 0 0 0-.526.52l-.002 1.48-.001 1.817v.059c0 .284.233.525.519.526a.528.528 0 0 0 .527-.519z"/></g></g></g><g><g><g><path fill="#2bc2fa" d="M5.56 6.371c.192-.19.383-.382.574-.573L7.5 4.435 9.12 2.814l1.346-1.345.537-.537A.528.528 0 0 0 11 .192a.529.529 0 0 0-.74.004L9.687.77 8.322 2.133 6.7 3.753 5.354 5.1l-.537.536a.528.528 0 0 0 .004.74.529.529 0 0 0 .74-.004z"/></g></g></g></g></g></svg>