<svg xmlns="http://www.w3.org/2000/svg" width="44" height="44" viewBox="0 0 44 44"><g><g><path fill="#1a1a1a" d="M37.436 38.955h-8.92V24.763c0-.616-.498-1.115-1.114-1.115h-11.15c-.616 0-1.115.5-1.115 1.115v14.192h-8.92V18.198L21.892 4.846l15.544 13.225zm-11.15-.07h-8.92V25.879h8.92zm15.042-20.43L22.614 2.533a1.118 1.118 0 0 0-1.446 0L2.392 18.525a1.115 1.115 0 0 0 1.444 1.697l.148-.126V40.07c0 .615.499 1.114 1.114 1.114h33.453c.615 0 1.114-.499 1.114-1.114V19.969l.22.186a1.115 1.115 0 1 0 1.443-1.7z"/><path fill="none" stroke="#707070" stroke-miterlimit="20" stroke-width=".2" d="M37.436 38.955h-8.92V24.763c0-.616-.498-1.115-1.114-1.115h-11.15c-.616 0-1.115.5-1.115 1.115v14.192h-8.92V18.198L21.892 4.846l15.544 13.225zm-11.15-.07h-8.92V25.879h8.92zm15.042-20.43L22.614 2.533a1.118 1.118 0 0 0-1.446 0L2.392 18.525a1.115 1.115 0 0 0 1.444 1.697l.148-.126V40.07c0 .615.499 1.114 1.114 1.114h33.453c.615 0 1.114-.499 1.114-1.114V19.969l.22.186a1.115 1.115 0 1 0 1.443-1.7z"/></g></g></svg>