<svg xmlns="http://www.w3.org/2000/svg" width="5" height="4" viewBox="0 0 5 4"><g><g transform="rotate(180 2.5 2)"><g><path fill="#1a1a1a" d="M4.806 3.808H.19L2.499.194z"/></g><g><g><path fill="#1a1a1a" d="M4.822 3.675H.75c-.188 0-.379-.01-.566 0H.175l.154.242.23-.366.555-.879.672-1.063.578-.915c.095-.149.2-.295.283-.448L2.651.24h-.305l.23.366.555.879.672 1.063.578.915c.095.149.184.302.283.448l.004.006c.047.075.16.101.241.058a.155.155 0 0 0 .064-.22l-.231-.366-.555-.879-.672-1.063-.578-.915C2.843.383 2.753.23 2.654.084a2.046 2.046 0 0 0-.003-.006c-.066-.104-.24-.104-.305 0l-.231.366-.555.88-.672 1.062-.578.915c-.094.15-.193.297-.283.448l-.003.006c-.068.105.017.243.153.243h4.072c.189 0 .377.005.566 0h.008c.092 0 .182-.074.177-.161a.175.175 0 0 0-.178-.162z"/></g></g></g></g></svg>