<?xml version="1.0" encoding="utf-8"?><svg viewBox="0 0 24 24" xmlns="http://www.w3.org/2000/svg" xmlns:xlink="http://www.w3.org/1999/xlink"><style>:root>svg{display:none}:root>svg:target{display:block}</style><svg fill="none" viewBox="0 0 24 24" id="account" xmlns="http://www.w3.org/2000/svg"><path fill-rule="evenodd" clip-rule="evenodd" d="M6 14.25h9.75v1.5H6v-1.5zm0-3.75h8.25V12H6v-1.5z" fill="#000"/><path fill-rule="evenodd" clip-rule="evenodd" d="M3 19.5v-12h18v12H3zm18-15V6H3V4.5h18zM21 3H3a1.5 1.5 0 00-1.5 1.5v15A1.5 1.5 0 003 21h18a1.5 1.5 0 001.5-1.5v-15A1.5 1.5 0 0021 3z" fill="#000"/></svg><svg fill="none" viewBox="0 0 24 24" id="delete" xmlns="http://www.w3.org/2000/svg"><path fill-rule="evenodd" clip-rule="evenodd" d="M9 18V9h1.5v9H9zM13.5 18V9H15v9h-1.5z" fill="#000"/><path fill-rule="evenodd" clip-rule="evenodd" d="M6 21V6h12v15H6zM3 4.5V6h1.5v15A1.5 1.5 0 006 22.5h12a1.5 1.5 0 001.5-1.5V6H21V4.5H3zM9 3.5V2h6v1.5H9z" fill="#000"/></svg><svg fill="none" viewBox="0 0 24 24" id="delivery" xmlns="http://www.w3.org/2000/svg"><path fill-rule="evenodd" clip-rule="evenodd" d="M21 16.431l-6 3.3v-8.038l6-3.3v8.038zM14.25 3.856l5.943 3.269-5.943 3.269-5.944-3.27 5.944-3.268zm7.861 2.612l-7.5-4.125a.75.75 0 00-.723 0l-7.5 4.125a.75.75 0 000 1.314l7.112 3.911v8.038l-2.277-1.252-.723 1.314 3.388 1.864a.749.749 0 00.723 0l7.5-4.125a.75.75 0 00.389-.657v-9.75a.75.75 0 00-.389-.657z" fill="#000"/><path fill-rule="evenodd" clip-rule="evenodd" d="M7.5 10.5V12h-6v-1.5h6zM9 16.5V18H3v-1.5h6zM10.5 13.5V15h-6v-1.5h6z" fill="#000"/></svg><svg fill="none" viewBox="0 0 24 24" id="down" xmlns="http://www.w3.org/2000/svg"><path fill-rule="evenodd" clip-rule="evenodd" d="M12 16.498l-7.5-7.5 1.05-1.05 6.45 6.45 6.45-6.45 1.05 1.05-7.5 7.5z" fill="#000"/></svg><svg fill="none" viewBox="0 0 24 24" id="edit" xmlns="http://www.w3.org/2000/svg"><path fill-rule="evenodd" clip-rule="evenodd" d="M1.5 21v-1.5h21V21h-21zM4.5 16.5v-2.7L12 6.3 14.7 9l-7.5 7.5H4.5zM15.3 3L18 5.7l-2.25 2.25-2.7-2.7L15.3 3zm3.75 3.75c.6-.6.6-1.5 0-2.1l-2.7-2.7c-.6-.6-1.5-.6-2.1 0L3 13.2V18h4.8L19.05 6.75z" fill="#000"/></svg><svg viewBox="0 0 21 20" id="heart" xmlns="http://www.w3.org/2000/svg"><path d="M5.588 1.778c1.004 0 2.014.435 2.8 1.298L9.92 4.763a.79.79 0 00.585.264.79.79 0 00.584-.264l1.522-1.678c1.573-1.728 4.021-1.728 5.593 0s1.572 4.526 0 6.254c-2.567 2.821-5.136 5.64-7.704 8.46L2.796 9.33c-1.572-1.73-1.573-4.525 0-6.253.786-.863 1.788-1.298 2.792-1.298zm0-1.66c-1.438 0-2.876.591-3.961 1.784-2.17 2.385-2.168 6.207 0 8.594l8.284 9.123a.79.79 0 00.584.264.79.79 0 00.585-.264l8.292-9.115c2.17-2.385 2.17-6.208 0-8.593s-5.752-2.385-7.922 0l-.95 1.033-.951-1.042C8.464.709 7.026.118 5.588.118z"/></svg><svg fill="none" viewBox="0 0 24 24" id="play" xmlns="http://www.w3.org/2000/svg"><path fill-rule="evenodd" clip-rule="evenodd" d="M5.25 21a.75.75 0 01-.75-.75V3.75a.75.75 0 011.111-.657l15 8.25a.75.75 0 010 1.314l-15 8.25A.751.751 0 015.25 21z" fill="#000"/></svg><svg fill="none" viewBox="0 0 24 24" id="stop" xmlns="http://www.w3.org/2000/svg"><path fill-rule="evenodd" clip-rule="evenodd" d="M18 4.498H6a1.5 1.5 0 00-1.5 1.5v12a1.5 1.5 0 001.5 1.5h12a1.5 1.5 0 001.5-1.5v-12a1.5 1.5 0 00-1.5-1.5z" fill="#000"/></svg><svg fill="none" viewBox="0 0 24 24" id="store" xmlns="http://www.w3.org/2000/svg"><path fill-rule="evenodd" clip-rule="evenodd" d="M21 12h-3V9h-1.5v3h-3.75V9h-1.5v3H7.5V9H6v3H3V8.37L4.29 4.5h15.42L21 8.37V12zm-1.5 7.5h-9v-6h9v6zm3-11.49L21 3.51a.75.75 0 00-.75-.51H3.75a.75.75 0 00-.75.51l-1.5 4.5c-.01.08-.01.16 0 .24v4.5c0 .414.336.75.75.75H3V21h1.5v-7.5H9V21h12v-7.5h.75a.75.75 0 00.75-.75v-4.5c.011-.08.011-.16 0-.24z" fill="#000"/></svg><svg fill="none" viewBox="0 0 24 24" id="up" xmlns="http://www.w3.org/2000/svg"><path fill-rule="evenodd" clip-rule="evenodd" d="M12 7.498l7.5 7.5-1.05 1.05L12 9.598l-6.45 6.45-1.05-1.05 7.5-7.5z" fill="#000"/></svg><svg viewBox="0 0 16 16" id="view" xmlns="http://www.w3.org/2000/svg"><path fill-rule="evenodd" clip-rule="evenodd" d="M6 8a2 2 0 114 0 2 2 0 01-4 0z"/><path fill-rule="evenodd" clip-rule="evenodd" d="M8 11.25a3.25 3.25 0 110-6.5 3.25 3.25 0 010 6.5zm7.47-3.42A8.345 8.345 0 008 2.5 8.345 8.345 0 00.53 7.83a.5.5 0 000 .34A8.345 8.345 0 008 13.5a8.345 8.345 0 007.47-5.33.5.5 0 000-.34z"/></svg></svg>