<?xml version="1.0" encoding="utf-8"?><svg viewBox="0 0 21 20" xmlns="http://www.w3.org/2000/svg" xmlns:xlink="http://www.w3.org/1999/xlink"><style>:root>svg{display:none}:root>svg:target{display:block}</style><svg viewBox="0 0 21 20" id="heart" xmlns="http://www.w3.org/2000/svg"><path d="M5.588 1.778c1.004 0 2.014.435 2.8 1.298L9.92 4.763a.79.79 0 00.585.264.79.79 0 00.584-.264l1.522-1.678c1.573-1.728 4.021-1.728 5.593 0s1.572 4.526 0 6.254c-2.567 2.821-5.136 5.64-7.704 8.46L2.796 9.33c-1.572-1.73-1.573-4.525 0-6.253.786-.863 1.788-1.298 2.792-1.298zm0-1.66c-1.438 0-2.876.591-3.961 1.784-2.17 2.385-2.168 6.207 0 8.594l8.284 9.123a.79.79 0 00.584.264.79.79 0 00.585-.264l8.292-9.115c2.17-2.385 2.17-6.208 0-8.593s-5.752-2.385-7.922 0l-.95 1.033-.951-1.042C8.464.709 7.026.118 5.588.118z"/></svg></svg>