<svg width="14" height="14" viewBox="0 0 14 14" fill="none" xmlns="http://www.w3.org/2000/svg">
<path fill-rule="evenodd" clip-rule="evenodd" d="M5 4.00137H2.39C3.71807 1.96126 6.23015 1.0369 8.56462 1.7293C10.8991 2.4217 12.5002 4.56605 12.5 7H13.5C13.5028 4.26151 11.7874 1.81527 9.21109 0.883726C6.63474 -0.047819 3.75062 0.735363 2 2.84189V1.00273H1V5.00091H5V4.00137Z" fill="black"/>
<path fill-rule="evenodd" clip-rule="evenodd" d="M9 9.99863H11.61C10.2819 12.0387 7.76985 12.9631 5.43538 12.2707C3.10091 11.5783 1.49984 9.43397 1.5 7H0.5C0.49718 9.73849 2.21256 12.1847 4.78891 13.1163C7.36527 14.0478 10.2494 13.2646 12 11.1581V12.9973H13V8.9991H9V9.99863Z" fill="black"/>
</svg>
