<svg width="16" height="17" viewBox="0 0 16 17" fill="none" xmlns="http://www.w3.org/2000/svg">
<path fill-rule="evenodd" clip-rule="evenodd" d="M12 14.2412H4V2.24121H8V5.24121C8 5.79121 8.45 6.24121 9 6.24121H12V14.2412ZM9 2.44121L11.8 5.24121H9V2.44121ZM12.85 4.89121L9.35 1.39121C9.25 1.29121 9.15 1.24121 9 1.24121H4C3.45 1.24121 3 1.69121 3 2.24121V14.2412C3 14.7912 3.45 15.2412 4 15.2412H12C12.55 15.2412 13 14.7912 13 14.2412V5.24121C13 5.09121 12.95 4.99121 12.85 4.89121Z" fill="black"/>
<path fill-rule="evenodd" clip-rule="evenodd" d="M5 12.2427V11.2427H11V12.2427H5Z" fill="black"/>
<path fill-rule="evenodd" clip-rule="evenodd" d="M5 9.24267V8.24267H11V9.24267H5Z" fill="black"/>
</svg>
