<svg xmlns="http://www.w3.org/2000/svg" width="17" height="15" viewBox="0 0 17 15"><g><g><path fill="#1a1a1a" d="M12.565 12.375c.415 0 .74.329.74.75 0 .42-.325.75-.74.75a.736.736 0 0 1-.739-.75c0-.421.325-.75.74-.75zm-5.543 0c.415 0 .739.329.739.75 0 .42-.324.75-.74.75a.736.736 0 0 1-.738-.75c0-.421.324-.75.739-.75zm5.543-1.125c-1.014 0-1.848.846-1.848 1.875S11.551 15 12.565 15c1.014 0 1.848-.846 1.848-1.875s-.834-1.875-1.848-1.875zm-5.543 0c-1.014 0-1.848.846-1.848 1.875S6.008 15 7.022 15c1.014 0 1.848-.846 1.848-1.875s-.834-1.875-1.848-1.875zM4.7 3h11.047l-.86 3.785-8.425.68zM.554 0A.558.558 0 0 0 0 .562c0 .311.248.563.554.563h2.212C3.683 3.43 4.587 5.74 5.497 8.05l-.837 2.045a.58.58 0 0 0 .05.53c.102.153.282.25.464.249h9.24a.58.58 0 0 0 .561-.563.58.58 0 0 0-.562-.562H6.005l.48-1.16 8.898-.721a.573.573 0 0 0 .497-.434l1.109-4.875c.072-.328-.212-.686-.543-.685H4.256L3.656.35A.569.569 0 0 0 3.14 0z"/></g></g></svg>