<svg xmlns="http://www.w3.org/2000/svg" width="15" height="14" viewBox="0 0 15 14"><g><g><path fill="#1a1a1a" d="M3.991 1.176c.717 0 1.439.308 2 .92L7.085 3.29c.109.119.26.186.417.186a.566.566 0 0 0 .418-.186l1.087-1.189c1.123-1.224 2.872-1.224 3.995 0 1.123 1.224 1.123 3.206 0 4.43-1.834 1.998-3.669 3.994-5.503 5.993l-5.502-6C.874 5.3.874 3.32 1.997 2.095c.561-.611 1.277-.919 1.994-.919zm0-1.176a3.823 3.823 0 0 0-2.83 1.264c-1.55 1.69-1.548 4.396 0 6.087l5.918 6.463c.109.119.26.186.417.186a.566.566 0 0 0 .418-.186l5.923-6.457c1.55-1.69 1.55-4.397 0-6.087-1.55-1.69-4.109-1.69-5.659 0l-.679.732-.679-.738A3.823 3.823 0 0 0 3.991 0z"/></g></g></svg>