<svg xmlns="http://www.w3.org/2000/svg" width="15" height="9" viewBox="0 0 15 9"><g><g><g><path fill="#fff" d="M14.257 1.57H.777A.763.763 0 0 1 0 .786C0 .337.333 0 .778 0H14.22c.444 0 .777.337.777.785.037.412-.333.786-.74.786z"/></g><g><path fill="#fff" d="M14.257 5.285H.777A.763.763 0 0 1 0 4.5c0-.449.333-.785.778-.785H14.22c.444 0 .777.336.777.785s-.333.785-.74.785z"/></g><g><path fill="#fff" d="M14.257 9H.777A.763.763 0 0 1 0 8.215c0-.45.333-.786.778-.786H14.22c.444 0 .777.337.777.786 0 .448-.333.785-.74.785z"/></g></g></g></svg>