<svg xmlns="http://www.w3.org/2000/svg" width="13" height="13" viewBox="0 0 13 13"><g><g><path fill="#1a1a1a" d="M7.55 6.686c-.374.374-.585.602-.585.963v.18c0 .072-.058.13-.13.13H5.804a.129.129 0 0 1-.128-.13v-.18c0-.912.534-1.446.963-1.875.373-.374.585-.603.585-.963a.903.903 0 0 0-1.806 0 .129.129 0 0 1-.129.128H4.256a.128.128 0 0 1-.128-.128c0-1.21.983-2.193 2.192-2.193 1.21 0 2.192.984 2.192 2.193 0 .912-.533 1.446-.962 1.875zm-1.23 3.336a.774.774 0 1 1 0-1.549.774.774 0 0 1 0 1.549zM6.32 0a6.32 6.32 0 1 0 0 12.64A6.32 6.32 0 0 0 6.32 0z"/></g></g></svg>