<svg xmlns="http://www.w3.org/2000/svg" width="73" height="39" viewBox="0 0 73 39"><g><g><g><g opacity=".7" transform="rotate(-45 6.26 6.26)"><path fill="#efe022" d="M.42 6.261a5.841 5.841 0 1 1 11.682 0 5.841 5.841 0 0 1-11.682 0z"/></g><g opacity=".7" transform="rotate(-45 6.26 14.24)"><path fill="#9cc22a" d="M.42 14.243a5.841 5.841 0 1 1 11.682 0 5.841 5.841 0 0 1-11.682 0z"/></g><g opacity=".7" transform="rotate(-45 6.26 22.225)"><path fill="#86c7ee" d="M.42 22.225a5.841 5.841 0 1 1 11.682 0 5.841 5.841 0 0 1-11.682 0z"/></g><g opacity=".7" transform="rotate(-45 6.26 30.74)"><path fill="#ce65a3" d="M.42 30.74a5.841 5.841 0 1 1 11.682 0 5.841 5.841 0 0 1-11.682 0z"/></g></g><g><path fill="#030504" d="M21.577 7.165V2.85h2.06c1.264 0 2.002.777 2.002 2.138 0 1.38-.738 2.177-2.04 2.177zm-2.547 7.329h2.547V9.343h1.283c.738 0 1.01.097 1.302.641l1.788 3.48c.448.874.895 1.03 1.925 1.03h1.322v-2.158h-.253c-.428 0-.758-.039-.952-.447L26.63 9.226c-.253-.505-.68-.7-.68-.7v-.039c.583-.116 2.313-1.147 2.313-3.635 0-2.605-1.789-4.16-4.296-4.16h-6.201V2.85h1.263z"/></g><g><path fill="#030504" d="M32.407 8.118c.234-1.263 1.128-2.099 2.392-2.099 1.107 0 1.963.778 1.982 2.1zm2.45-3.965c-2.974 0-5.054 2.138-5.054 5.19 0 2.819 2.06 5.19 5.345 5.19 1.73 0 3.266-.816 3.985-1.419l-.972-1.769c-.524.37-1.555 1.089-2.838 1.089-1.496 0-2.818-.894-2.993-2.624h6.842c.04-.234.078-.622.078-.953 0-2.624-1.555-4.704-4.393-4.704z"/></g><g><path fill="#030504" d="M42.681 11.326c0-1.36 2.042-1.555 3.324-1.555h.448v.272c0 1.205-.914 2.605-2.275 2.605-.991 0-1.497-.661-1.497-1.322zm3.441-3.246c-1.613 0-5.89.175-5.89 3.499 0 1.846 1.516 2.954 3.285 2.954 2.236 0 3.091-1.75 3.072-1.75h.039v.429c0 .583.33 1.088 1.244 1.088h2.235v-2.08h-.777c-.273 0-.428-.155-.428-.428V8.1c0-2.255-.972-3.946-4.354-3.946-.953 0-3.577.214-3.577 2.041v1.05h2.313v-.525c0-.544.875-.661 1.322-.661 1.263 0 1.827.525 1.827 1.886v.136h-.31z"/></g><g><path fill="#030504" d="M53.202 9.537c0-1.963 1.147-3.071 2.489-3.071 1.671 0 2.468 1.516 2.468 3.052 0 2.196-1.205 3.13-2.488 3.13-1.458 0-2.469-1.225-2.469-3.111zm-2.488 0c0 3.071 1.71 5.19 4.393 5.19 2.294 0 3.11-1.613 3.11-1.613h.04s-.02.155-.02.37c0 .582.35 1.01 1.244 1.01h2.275v-2.08h-.778c-.272 0-.428-.156-.428-.428V2.014c0-.914-.389-1.322-1.302-1.322h-2.352v2.1h.758c.272 0 .427.136.427.427v1.75c0 .33.04.583.04.583h-.04s-.7-1.205-2.876-1.205c-2.625 0-4.49 2.04-4.49 5.19z"/></g><g><path fill="#030504" d="M64.4 16.27c.68 0 1.282-.409 1.632-1.264l.33-.758-3.285-7.446c-.136-.291-.272-.35-.544-.35h-.291V4.354h1.632c.7 0 1.05.253 1.322.933l1.925 4.957c.194.506.35 1.322.35 1.322h.039s.155-.816.33-1.322l1.691-4.957c.214-.68.642-.933 1.322-.933h1.672v2.1h-.292c-.272 0-.447.058-.563.35l-3.538 8.96c-.72 1.79-2.12 2.586-3.577 2.586-1.575 0-2.508-1.01-2.508-1.01l.933-1.75s.603.68 1.42.68z"/></g><g><path fill="#030504" d="M19 25.732h-1.284v-1.108h1.303v-2.702h1.302v2.702h2.469v1.108H20.32v4.977c0 2.294 1.458 2.585 2.216 2.585.272 0 .447-.039.447-.039v1.186s-.233.039-.583.039c-1.108 0-3.402-.37-3.402-3.635z"/></g><g><path fill="#030504" d="M25.105 29.465c0-2.216 1.711-3.888 3.81-3.888 2.1 0 3.81 1.672 3.81 3.888 0 2.274-1.71 3.985-3.81 3.985-2.099 0-3.81-1.71-3.81-3.985zm-1.34 0c0 2.954 2.293 5.17 5.15 5.17 2.858 0 5.152-2.216 5.152-5.17 0-2.897-2.294-5.074-5.152-5.074-2.857 0-5.15 2.177-5.15 5.074z"/></g><g><path fill="#030504" d="M43.676 33.197c-.272 0-.427-.136-.427-.427v-4.938h3.343c1.575 0 2.683 1.07 2.683 2.702 0 1.633-1.03 2.663-2.683 2.663h-2.916zm-.427-6.531v-4.724h3.149c1.458 0 2.332.933 2.332 2.333 0 1.419-.933 2.39-2.293 2.39zm-1.361 6.55c0 .837.35 1.186 1.186 1.186h3.518c2.294 0 4.082-1.4 4.082-3.83 0-1.651-.894-2.993-2.274-3.382v-.038c.972-.486 1.73-1.478 1.73-2.975 0-2.138-1.555-3.44-3.693-3.44h-5.813v1.205h1.264z"/></g><g><path fill="#030504" d="M52.9 26.199c0-.292-.156-.428-.428-.428h-.816v-1.147h1.38c.836 0 1.186.35 1.186 1.147v4.724c0 1.536.252 2.897 2.138 2.897 2.235 0 3.616-1.964 3.616-4.083v-4.685h1.321v8.204c0 .291.156.427.428.427h.817v1.147H61.18c-.817 0-1.186-.35-1.186-1.088v-.447c0-.39.039-.7.039-.7h-.039c-.37.952-1.652 2.469-3.81 2.469-2.313 0-3.285-1.244-3.285-3.791z"/></g><g><path fill="#030504" d="M62.989 37.532l.622-.952c.02.038.641.719 1.458.719.855 0 1.438-.7 1.808-1.594l.583-1.342-3.441-8.145c-.156-.35-.33-.447-.68-.447h-.195v-1.147h.603c.875 0 1.147.195 1.497 1.07l2.507 6.104c.195.486.35 1.05.35 1.05h.039s.136-.564.33-1.05l2.41-6.104c.331-.875.623-1.07 1.517-1.07H73v1.147h-.195c-.35 0-.544.098-.68.447l-4.218 10.225c-.506 1.245-1.497 2.042-2.8 2.042-1.36 0-2.118-.953-2.118-.953z"/></g></g></g></svg>