<svg xmlns="http://www.w3.org/2000/svg" width="40" height="36" viewBox="0 0 40 36"><g><g><path fill="#1a1a1a" d="M29.784 29.432c.962 0 1.714.763 1.714 1.74 0 .975-.752 1.738-1.714 1.738s-1.714-.763-1.714-1.739c0-.976.752-1.74 1.714-1.74zm-12.856 0c.962 0 1.714.763 1.714 1.74 0 .975-.752 1.738-1.714 1.738s-1.714-.763-1.714-1.739c0-.976.752-1.74 1.714-1.74zm12.856-2.61c-2.351 0-4.285 1.963-4.285 4.35 0 2.385 1.934 4.348 4.285 4.348 2.352 0 4.286-1.963 4.286-4.349s-1.934-4.348-4.286-4.348zm-12.856 0c-2.352 0-4.286 1.963-4.286 4.35 0 2.385 1.934 4.348 4.286 4.348 2.351 0 4.285-1.963 4.285-4.349s-1.934-4.348-4.285-4.348zM11.544 7.69h25.62l-1.996 8.779-19.54 1.576zM1.93.732c-.71 0-1.286.584-1.286 1.305 0 .72.576 1.304 1.286 1.304h5.129c2.128 5.348 4.224 10.705 6.334 16.062l-1.941 4.743c-.163.395-.117.872.117 1.228.235.356.652.58 1.074.579H34.07c.679.01 1.304-.615 1.304-1.304 0-.69-.625-1.314-1.304-1.305h-19.5l1.112-2.69 20.637-1.672c.54-.043 1.03-.47 1.152-1.006L40.042 6.67c.169-.76-.49-1.592-1.258-1.59h-28.27L9.12 1.549A1.318 1.318 0 0 0 7.928.732z"/></g></g></svg>