<svg xmlns="http://www.w3.org/2000/svg" width="36" height="36" viewBox="0 0 36 36"><g><g><g transform="rotate(-45 29.325 29.575)"><path fill="#1a1a1a" d="M28.601 37.445a.75.75 0 0 1-.75-.75V22.452a.75.75 0 0 1 .75-.75h1.452a.75.75 0 0 1 .75.75v14.243a.75.75 0 0 1-.75.75z"/></g><g transform="rotate(-90 14.215 14.465)"><path fill="#1a1a1a" d="M3.39 14.46c0-5.977 4.846-10.823 10.824-10.823s10.824 4.846 10.824 10.824c0 5.977-4.846 10.823-10.824 10.823S3.391 20.438 3.391 14.461zm10.824 13.776c7.608 0 13.776-6.167 13.776-13.775C27.99 6.853 21.822.685 14.214.685S.44 6.853.44 14.461s6.167 13.775 13.775 13.775z"/></g></g></g></svg>