<svg xmlns="http://www.w3.org/2000/svg" width="38" height="36" viewBox="0 0 38 36"><g><g><path fill="#1a1a1a" d="M10.572 3.654c1.782 0 3.575.765 4.97 2.286L18.26 8.91c.27.296.646.463 1.038.463s.767-.167 1.037-.463l2.702-2.953c2.79-3.042 7.136-3.041 9.926 0 2.79 3.04 2.79 7.965 0 11.005-4.557 4.967-9.116 9.927-13.673 14.893L5.616 16.946c-2.789-3.045-2.79-7.965 0-11.006 1.395-1.52 3.174-2.286 4.956-2.286zm0-2.922c-2.553 0-5.105 1.042-7.03 3.14-3.853 4.199-3.848 10.926 0 15.126l14.702 16.059c.27.295.646.462 1.038.462s.767-.167 1.037-.462c4.905-5.346 9.813-10.698 14.718-16.043 3.852-4.198 3.852-10.928 0-15.126-3.852-4.198-10.21-4.198-14.061 0l-1.687 1.819-1.687-1.835c-1.925-2.098-4.478-3.14-7.03-3.14z"/></g></g></svg>