<svg width="24" height="24" viewBox="0 0 24 24" fill="none" xmlns="http://www.w3.org/2000/svg">
<path fill-rule="evenodd" clip-rule="evenodd" d="M20.9997 16.4314L14.9997 19.7314V11.6933L20.9997 8.39331V16.4314ZM14.2497 3.85603L20.1933 7.12483L14.2497 10.3936L8.3061 7.12483L14.2497 3.85603ZM22.1111 6.46783L14.6111 2.34283C14.3861 2.21906 14.1133 2.21906 13.8883 2.34283L6.38827 6.46783C6.14877 6.59969 6 6.85143 6 7.12483C6 7.39823 6.14877 7.64997 6.38827 7.78183L13.4997 11.6933V19.7313L11.2225 18.4793L10.4997 19.7932L13.8883 21.6568C14.1133 21.7808 14.3861 21.7808 14.6111 21.6568L22.1111 17.5318C22.3507 17.4001 22.4996 17.1483 22.4997 16.8748V7.12484C22.4997 6.85155 22.3509 6.59976 22.1113 6.46792L22.1111 6.46783Z" fill="black"/>
<path fill-rule="evenodd" clip-rule="evenodd" d="M7.5 10.5V12H1.5V10.5H7.5Z" fill="black"/>
<path fill-rule="evenodd" clip-rule="evenodd" d="M9 16.5V18H3V16.5H9Z" fill="black"/>
<path fill-rule="evenodd" clip-rule="evenodd" d="M10.5 13.5V15H4.5V13.5H10.5Z" fill="black"/>
</svg>
