<svg width="24" height="24" viewBox="0 0 24 24" fill="none" xmlns="http://www.w3.org/2000/svg">
<path fill-rule="evenodd" clip-rule="evenodd" d="M21.0003 12.0001H18.0003V9.00005H16.5003V12.0001H12.7503V9.00005H11.2503V12.0001H7.5003V9.00005H6.0003V12.0001H3.0003V8.37005L4.2903 4.50005H19.7103L21.0003 8.37005V12.0001ZM19.5003 19.5H10.5003V13.5H19.5003V19.5ZM22.5003 8.01005L21.0003 3.51005C20.893 3.19102 20.5864 2.98251 20.2503 3.00005H3.7503C3.41419 2.98251 3.10755 3.19102 3.0003 3.51005L1.5003 8.01005C1.48949 8.08969 1.48949 8.17041 1.5003 8.25005V12.7501C1.5003 13.1643 1.83609 13.5001 2.2503 13.5001H3.0003V21.0001H4.5003V13.5001H9.0003V21.0001H21.0003V13.5001H21.7503C22.1645 13.5001 22.5003 13.1643 22.5003 12.7501V8.25005C22.5111 8.17041 22.5111 8.08969 22.5003 8.01005Z" fill="black"/>
</svg>
