<svg width="16" height="16" viewBox="0 0 16 16" xmlns="http://www.w3.org/2000/svg">
<path fill-rule="evenodd" clip-rule="evenodd" d="M6 8C6 6.89543 6.89543 6 8 6C9.10457 6 10 6.89543 10 8C10 9.10457 9.10457 10 8 10C6.89543 10 6 9.10457 6 8Z"/>
<path fill-rule="evenodd" clip-rule="evenodd" d="M7.99979 11.25C6.20486 11.25 4.74979 9.79493 4.74979 8C4.74979 6.20507 6.20486 4.75 7.99979 4.75C9.79472 4.75 11.2498 6.20508 11.2498 8C11.247 9.79378 9.79357 11.2472 7.99979 11.25ZM15.4698 7.83C14.2678 4.72085 11.3308 2.62526 7.99979 2.5C4.66874 2.62526 1.73178 4.72085 0.52979 7.83C0.49007 7.93985 0.49007 8.06015 0.52979 8.17C1.73177 11.2792 4.66874 13.3747 7.99979 13.5C11.3308 13.3747 14.2678 11.2792 15.4698 8.17C15.5095 8.06015 15.5095 7.93985 15.4698 7.83Z"/>
</svg>
